<svg width="118" height="29" viewBox="0 0 118 29" fill="none" xmlns="http://www.w3.org/2000/svg">
<path d="M12.5659 28.296C8.42191 28.296 5.35091 27.223 3.35291 25.077C1.37957 22.9063 0.392905 19.5393 0.392905 14.976C0.392905 6.19467 4.51224 1.804 12.7509 1.804C13.9842 1.804 15.2422 1.93967 16.5249 2.211C17.8076 2.45767 18.8066 2.79067 19.5219 3.21C20.1632 3.58 20.4839 3.97467 20.4839 4.394C20.4839 4.73933 20.3482 5.19567 20.0769 5.763C19.8056 6.30567 19.4726 6.799 19.0779 7.243C18.7079 7.66233 18.3749 7.872 18.0789 7.872C18.0049 7.872 17.7089 7.761 17.1909 7.539C16.6729 7.317 16.0439 7.11967 15.3039 6.947C14.5639 6.77433 13.6759 6.688 12.6399 6.688C10.4692 6.688 8.85357 7.37867 7.79291 8.76C6.75691 10.1413 6.23891 12.2257 6.23891 15.013C6.23891 20.637 8.34791 23.449 12.5659 23.449C13.6759 23.449 14.6379 23.338 15.4519 23.116C16.2659 22.894 17.0552 22.6103 17.8199 22.265C18.2146 22.0677 18.4859 21.969 18.6339 21.969C19.0039 21.969 19.3492 22.1787 19.6699 22.598C20.0152 23.0173 20.2866 23.4983 20.4839 24.041C20.7059 24.559 20.8169 24.9413 20.8169 25.188C20.8169 25.8293 20.3852 26.3967 19.5219 26.89C18.7079 27.3587 17.6349 27.7163 16.3029 27.963C14.9709 28.185 13.7252 28.296 12.5659 28.296ZM32.1811 28.296C29.2458 28.296 27.0134 27.445 25.4841 25.743C23.9548 24.0163 23.1901 21.5373 23.1901 18.306C23.1901 15.0747 23.9548 12.608 25.4841 10.906C27.0134 9.204 29.2458 8.353 32.1811 8.353C35.1164 8.353 37.3364 9.204 38.8411 10.906C40.3704 12.608 41.1351 15.0747 41.1351 18.306C41.1351 21.5373 40.3704 24.0163 38.8411 25.743C37.3364 27.445 35.1164 28.296 32.1811 28.296ZM32.1811 23.967C33.3404 23.967 34.1914 23.4983 34.7341 22.561C35.3014 21.599 35.5851 20.1807 35.5851 18.306C35.5851 16.4313 35.3014 15.0253 34.7341 14.088C34.1914 13.1507 33.3404 12.682 32.1811 12.682C31.0218 12.682 30.1584 13.1507 29.5911 14.088C29.0238 15.0253 28.7401 16.4313 28.7401 18.306C28.7401 22.08 29.8871 23.967 32.1811 23.967ZM50.4345 28.296C46.8332 28.296 45.0325 26.298 45.0325 22.302V1.286C45.0325 0.496666 45.7725 0.102 47.2525 0.102H48.2885C49.7685 0.102 50.5085 0.496666 50.5085 1.286V22.376C50.5085 22.9433 50.6072 23.3503 50.8045 23.597C51.0265 23.8437 51.3719 23.967 51.8405 23.967C51.9639 23.967 52.1242 23.9423 52.3215 23.893C52.5435 23.8437 52.7162 23.819 52.8395 23.819C53.0615 23.819 53.2589 24.004 53.4315 24.374C53.6042 24.744 53.7399 25.151 53.8385 25.595C53.9372 26.039 53.9865 26.335 53.9865 26.483C53.9865 27.6917 52.8025 28.296 50.4345 28.296ZM64.2309 28.296C61.2956 28.296 59.0632 27.445 57.5339 25.743C56.0046 24.0163 55.2399 21.5373 55.2399 18.306C55.2399 15.0747 56.0046 12.608 57.5339 10.906C59.0632 9.204 61.2956 8.353 64.2309 8.353C67.1662 8.353 69.3862 9.204 70.8909 10.906C72.4202 12.608 73.1849 15.0747 73.1849 18.306C73.1849 21.5373 72.4202 24.0163 70.8909 25.743C69.3862 27.445 67.1662 28.296 64.2309 28.296ZM64.2309 23.967C65.3902 23.967 66.2412 23.4983 66.7839 22.561C67.3512 21.599 67.6349 20.1807 67.6349 18.306C67.6349 16.4313 67.3512 15.0253 66.7839 14.088C66.2412 13.1507 65.3902 12.682 64.2309 12.682C63.0716 12.682 62.2082 13.1507 61.6409 14.088C61.0736 15.0253 60.7899 16.4313 60.7899 18.306C60.7899 22.08 61.9369 23.967 64.2309 23.967ZM79.2653 28.074C77.7853 28.074 77.0453 27.6793 77.0453 26.89V15.161C77.0453 14.0757 77.0083 13.2493 76.9343 12.682C76.885 12.09 76.811 11.4363 76.7123 10.721C76.6383 10.3757 76.6013 10.1167 76.6013 9.944C76.6013 9.54933 77.0947 9.25333 78.0813 9.056C79.0927 8.85867 79.9807 8.76 80.7453 8.76C81.1893 8.76 81.4977 8.93267 81.6703 9.278C81.843 9.59867 81.9663 9.95633 82.0403 10.351C82.139 10.7457 82.2007 11.017 82.2253 11.165C82.694 10.3017 83.2367 9.62333 83.8533 9.13C84.4947 8.612 85.2963 8.353 86.2583 8.353C87.0477 8.353 87.5903 8.56267 87.8863 8.982C88.207 9.37667 88.3673 9.833 88.3673 10.351C88.3673 10.869 88.2563 11.5227 88.0343 12.312C87.8123 13.0767 87.541 13.459 87.2203 13.459C87.0723 13.459 86.8133 13.4097 86.4433 13.311C86.0733 13.2123 85.7527 13.163 85.4813 13.163C84.8153 13.163 84.2233 13.3603 83.7053 13.755C83.212 14.125 82.8173 14.5443 82.5213 15.013V26.89C82.5213 27.6793 81.7813 28.074 80.3013 28.074H79.2653ZM96.0341 28.296C92.4328 28.296 90.6321 26.298 90.6321 22.302V1.286C90.6321 0.496666 91.3721 0.102 92.8521 0.102H93.8881C95.3681 0.102 96.1081 0.496666 96.1081 1.286V22.376C96.1081 22.9433 96.2068 23.3503 96.4041 23.597C96.6261 23.8437 96.9715 23.967 97.4401 23.967C97.5635 23.967 97.7238 23.9423 97.9211 23.893C98.1431 23.8437 98.3158 23.819 98.4391 23.819C98.6611 23.819 98.8585 24.004 99.0311 24.374C99.2038 24.744 99.3395 25.151 99.4381 25.595C99.5368 26.039 99.5861 26.335 99.5861 26.483C99.5861 27.6917 98.4021 28.296 96.0341 28.296ZM110.497 28.296C107.241 28.296 104.811 27.4327 103.208 25.706C101.629 23.9547 100.84 21.5373 100.84 18.454C100.84 14.976 101.629 12.423 103.208 10.795C104.811 9.167 107.019 8.353 109.831 8.353C112.569 8.353 114.579 9.241 115.862 11.017C117.169 12.793 117.823 15.087 117.823 17.899C117.823 18.195 117.564 18.639 117.046 19.231C116.552 19.7983 116.182 20.082 115.936 20.082H106.501C106.624 21.488 107.043 22.487 107.759 23.079C108.474 23.671 109.473 23.967 110.756 23.967C111.446 23.967 112.075 23.893 112.643 23.745C113.21 23.5723 113.802 23.3627 114.419 23.116C114.813 22.9187 115.085 22.82 115.233 22.82C115.479 22.82 115.751 23.005 116.047 23.375C116.367 23.7203 116.626 24.1273 116.824 24.596C117.046 25.04 117.157 25.3853 117.157 25.632C117.157 26.1993 116.774 26.6927 116.01 27.112C115.245 27.5067 114.332 27.8027 113.272 28C112.211 28.1973 111.286 28.296 110.497 28.296ZM112.495 16.419C112.495 15.2843 112.273 14.384 111.829 13.718C111.385 13.0273 110.719 12.682 109.831 12.682C108.005 12.682 106.895 13.9277 106.501 16.419H112.495Z" fill="#535458"/>
</svg>
